<mxfile host="app.diagrams.net" modified="2024-03-20T16:06:40.339Z" agent="Mozilla/5.0 (Windows NT 10.0; Win64; x64) AppleWebKit/537.36 (KHTML, like Gecko) Chrome/123.0.0.0 Safari/537.36" version="24.0.7" etag="iNcOoUXB7RtDAKHvIjXL" type="github">
  <diagram name="Page-1" id="v7zQvtteAtXxrZp0URC6">
    <mxGraphModel>
      <root>
        <mxCell id="0" />
        <mxCell id="1" parent="0" />
      </root>
    </mxGraphModel>
  </diagram>
</mxfile>
